HIERARCHY
ROOT joint_0
{
	OFFSET 0.000000 0.000000 0.000000
	CHANNELS 6 Xposition Yposition Zposition Zrotation Yrotation Xrotation 
	JOINT joint_1
	{
		OFFSET 6.004005 -1.946999 100.587036
		CHANNELS 3 Zrotation Yrotation Xrotation
		JOINT joint_2
		{
			OFFSET -4.601006 -0.824997 91.925903
			CHANNELS 3 Zrotation Yrotation Xrotation
			JOINT joint_3
			{
				OFFSET -5.420998 -1.130005 91.774048
				CHANNELS 3 Zrotation Yrotation Xrotation
				JOINT joint_4
				{
					OFFSET 4.308998 -3.777992 123.473999
					CHANNELS 3 Zrotation Yrotation Xrotation
					JOINT joint_5
					{
						OFFSET 25.565002 -6.305008 79.437988
						CHANNELS 3 Zrotation Yrotation Xrotation
						End Site
						{
							OFFSET 0.000000 0.000000 0.000000
						}
					}
				}
				JOINT joint_6
				{
					OFFSET -1.750000 -28.655998 68.557983
					CHANNELS 3 Zrotation Yrotation Xrotation
					JOINT joint_7
					{
						OFFSET -17.692001 -116.544006 -17.244019
						CHANNELS 3 Zrotation Yrotation Xrotation
						JOINT joint_8
						{
							OFFSET 27.063004 -23.640991 -266.895020
							CHANNELS 3 Zrotation Yrotation Xrotation
							JOINT joint_9
							{
								OFFSET 40.722000 -15.761017 -232.488953
								CHANNELS 3 Zrotation Yrotation Xrotation
								End Site
								{
									OFFSET 0.000000 0.000000 0.000000
								}
							}
						}
					}
				}
				JOINT joint_10
				{
					OFFSET 6.593002 24.457001 69.892944
					CHANNELS 3 Zrotation Yrotation Xrotation
					JOINT joint_11
					{
						OFFSET 24.311996 114.920002 -19.872925
						CHANNELS 3 Zrotation Yrotation Xrotation
						JOINT joint_12
						{
							OFFSET 21.081001 15.319000 -268.037964
							CHANNELS 3 Zrotation Yrotation Xrotation
							JOINT joint_13
							{
								OFFSET 27.794006 -8.947001 -234.744080
								CHANNELS 3 Zrotation Yrotation Xrotation
								End Site
								{
									OFFSET 0.000000 0.000000 0.000000
								}
							}
						}
					}
				}
			}
		}
	}
	JOINT joint_14
	{
		OFFSET -6.627998 -80.520004 -98.790039
		CHANNELS 3 Zrotation Yrotation Xrotation
		JOINT joint_15
		{
			OFFSET -43.638000 -13.751999 -502.538971
			CHANNELS 3 Zrotation Yrotation Xrotation
			JOINT joint_16
			{
				OFFSET -39.532999 -9.912994 -398.071007
				CHANNELS 3 Zrotation Yrotation Xrotation
				JOINT joint_17
				{
					OFFSET 174.940004 -34.660995 -75.688002
					CHANNELS 3 Zrotation Yrotation Xrotation
					End Site
					{
						OFFSET 0.000000 0.000000 0.000000
					}
				}
			}
		}
	}
	JOINT joint_18
	{
		OFFSET 12.591003 79.842003 -98.765015
		CHANNELS 3 Zrotation Yrotation Xrotation
		JOINT joint_19
		{
			OFFSET -39.080002 -1.297001 -503.101013
			CHANNELS 3 Zrotation Yrotation Xrotation
			JOINT joint_20
			{
				OFFSET -51.570000 -0.514000 -396.815987
				CHANNELS 3 Zrotation Yrotation Xrotation
				JOINT joint_21
				{
					OFFSET 178.987999 -11.521999 -73.244003
					CHANNELS 3 Zrotation Yrotation Xrotation
					End Site
					{
						OFFSET 0.000000 0.000000 0.000000
					}
				}
			}
		}
	}
}
MOTION
Frames: 7
Frame Time: 0.016667
-1289.175781 881.882080 1095.944946 -2.126898 -0.532319 0.122261 0.124093 3.537503 0.009576 0.125649 -0.582849 0.043009 0.144195 0.706481 0.029670 0.075279 -2.367715 -0.811471 0.000000 0.000000 0.000000 2.639656 -0.235333 0.925245 0.076721 0.122364 1.079651 -0.669451 5.340320 -1.701869 0.000000 0.000000 0.000000 -1.358383 -1.283791 0.042045 -0.098814 -0.592543 -2.193917 0.667087 1.709129 5.903415 0.000000 0.000000 0.000000 0.147980 -1.602281 -3.268703 -0.349839 0.894428 1.304530 -0.289837 2.280766 0.326824 0.000000 0.000000 0.000000 -0.787195 -3.182564 4.734206 -0.400954 3.227228 -0.854845 -0.491306 -0.775594 -0.249266 0.000000 0.000000 0.000000 
-1289.092896 881.876526 1095.948975 -2.145838 -0.517151 0.123370 0.126156 3.531170 0.012842 0.127519 -0.583397 0.044459 0.145874 0.706906 0.027867 0.071435 -2.370777 -0.800325 0.000000 0.000000 0.000000 2.632986 -0.218429 0.942604 0.078164 0.136267 1.109539 -0.671977 5.349151 -1.713441 0.000000 0.000000 0.000000 -1.375055 -1.296396 0.043142 -0.099342 -0.602037 -2.194258 0.666688 1.709572 5.897466 0.000000 0.000000 0.000000 0.155181 -1.594626 -3.277191 -0.342850 0.844014 1.317062 -0.284301 2.310651 0.335120 0.000000 0.000000 0.000000 -0.783639 -3.172045 4.747585 -0.394269 3.183862 -0.881368 -0.488261 -0.758004 -0.246907 0.000000 0.000000 0.000000 
-1289.013550 881.881165 1095.951050 -2.166978 -0.506928 0.125680 0.129671 3.532064 0.017817 0.130613 -0.583605 0.043635 0.149081 0.707046 0.028987 0.067572 -2.379475 -0.790508 0.000000 0.000000 0.000000 2.628085 -0.202617 0.959772 0.079122 0.150293 1.133414 -0.673560 5.352886 -1.721517 0.000000 0.000000 0.000000 -1.387522 -1.309609 0.044664 -0.100308 -0.612302 -2.197199 0.666309 1.711979 5.892705 0.000000 0.000000 0.000000 0.163161 -1.585106 -3.285353 -0.334762 0.800805 1.324950 -0.277766 2.335175 0.342786 0.000000 0.000000 0.000000 -0.780004 -3.152005 4.759017 -0.387557 3.131815 -0.907282 -0.485099 -0.737749 -0.244331 0.000000 0.000000 0.000000 
-1288.932739 881.892700 1095.953979 -2.190242 -0.498773 0.128756 0.135716 3.535541 0.024733 0.136039 -0.584329 0.041291 0.154801 0.708893 0.031075 0.062856 -2.393991 -0.779497 0.000000 0.000000 0.000000 2.623229 -0.186701 0.978486 0.079764 0.165129 1.154581 -0.674888 5.355464 -1.728310 0.000000 0.000000 0.000000 -1.398391 -1.324223 0.046953 -0.101580 -0.624163 -2.200012 0.665745 1.715699 5.887427 0.000000 0.000000 0.000000 0.171882 -1.575843 -3.293537 -0.325839 0.762871 1.330200 -0.270435 2.356658 0.350193 0.000000 0.000000 0.000000 -0.776606 -3.124747 4.770070 -0.380926 3.069679 -0.934307 -0.482149 -0.713206 -0.241569 0.000000 0.000000 0.000000 
-1288.856201 881.919556 1095.954956 -2.208184 -0.491503 0.133416 0.139321 3.540033 0.032416 0.138934 -0.585706 0.038282 0.158003 0.709709 0.032722 0.058855 -2.406796 -0.770274 0.000000 0.000000 0.000000 2.620675 -0.172885 0.995830 0.079993 0.178934 1.169915 -0.675826 5.356596 -1.733503 0.000000 0.000000 0.000000 -1.405193 -1.336475 0.050537 -0.102759 -0.633900 -2.203658 0.665024 1.717899 5.880700 0.000000 0.000000 0.000000 0.179161 -1.566727 -3.304594 -0.318793 0.728522 1.336261 -0.264637 2.375383 0.356395 0.000000 0.000000 0.000000 -0.774725 -3.098513 4.777503 -0.376179 3.009712 -0.959499 -0.480758 -0.689885 -0.239517 0.000000 0.000000 0.000000 
-1288.783447 881.967590 1095.956055 -2.215471 -0.482261 0.141108 0.137522 3.538728 0.038605 0.136492 -0.586100 0.035605 0.155889 0.710571 0.035431 0.057199 -2.413822 -0.766854 0.000000 0.000000 0.000000 2.619123 -0.163086 1.010166 0.079436 0.190024 1.175238 -0.676535 5.355690 -1.738499 0.000000 0.000000 0.000000 -1.410881 -1.343931 0.052632 -0.103360 -0.639421 -2.206501 0.664166 1.716371 5.871536 0.000000 0.000000 0.000000 0.183316 -1.559441 -3.321339 -0.315745 0.696021 1.345173 -0.262321 2.392984 0.360875 0.000000 0.000000 0.000000 -0.775100 -3.080342 4.777954 -0.374530 2.958580 -0.980849 -0.481833 -0.668908 -0.238618 0.000000 0.000000 0.000000 
-1288.715576 882.035950 1095.956055 -2.214643 -0.471925 0.151395 0.132686 3.534849 0.044787 0.131003 -0.586751 0.033230 0.150657 0.711786 0.037146 0.056542 -2.419003 -0.766052 0.000000 0.000000 0.000000 2.614641 -0.156548 1.023082 0.078307 0.198497 1.172493 -0.677037 5.353425 -1.743160 0.000000 0.000000 0.000000 -1.417075 -1.348683 0.055874 -0.103706 -0.641807 -2.209618 0.663062 1.712541 5.859699 0.000000 0.000000 0.000000 0.185028 -1.553481 -3.342937 -0.315875 0.665570 1.356385 -0.262722 2.408833 0.363840 0.000000 0.000000 0.000000 -0.777344 -3.067135 4.772769 -0.375372 2.912464 -0.999546 -0.484938 -0.649762 -0.238661 0.000000 0.000000 0.000000 
